<svg xmlns="http://www.w3.org/2000/svg" width="62.252" height="62.252" viewBox="0 0 62.252 62.252"><defs><style>.a{fill:#ffd52b;}.b{fill:#6e351d;}</style></defs><g transform="translate(-530.135 -347.497)"><circle class="a" cx="31.126" cy="31.126" r="31.126" transform="translate(530.135 347.497)"/><circle class="b" cx="4.789" cy="4.789" r="4.789" transform="translate(567.247 376.229)"/><circle class="b" cx="4.789" cy="4.789" r="4.789" transform="translate(545.698 376.229)"/><path class="b" d="M575.508,368.9c-.179.389-.563.389-2.467-.06a51.537,51.537,0,0,0-23.559,0c-1.912.453-2.275.443-2.471.063-.174-.351-.211-.839,1.581-1.708a19.663,19.663,0,0,1,4.3-1.347,44,44,0,0,1,16.73,0,19.7,19.7,0,0,1,4.3,1.347C575.721,368.061,575.689,368.551,575.508,368.9Z"/></g></svg>