<svg xmlns="http://www.w3.org/2000/svg" width="62.252" height="62.252" viewBox="0 0 62.252 62.252"><defs><style>.a{fill:#ffd52b;}.b{fill:#fff5d1;}.c{fill:#eddbad;}.d{fill:#6e351d;}.e{fill:#e6a627;}</style></defs><g transform="translate(-631.275 -350.429)"><path class="a" d="M662.4,350.429a31.126,31.126,0,1,1-31.125,31.127A31.125,31.125,0,0,1,662.4,350.429Z"/><path class="b" d="M661.743,350.448l-7.28,13.439-7.039,13,34.316-19.708a30.978,30.978,0,0,0-19.34-6.749C662.179,350.429,661.961,350.443,661.743,350.448Z"/><path class="c" d="M661.634,350.7,634.617,367.52a30.173,30.173,0,0,0-3.342,14.039,31.427,31.427,0,0,0,.318,4.431l15.831-9.1Z"/><circle class="d" cx="4.789" cy="4.789" r="4.789" transform="translate(669.583 380.361)"/><circle class="d" cx="4.789" cy="4.789" r="4.789" transform="translate(645.64 380.361)"/><path class="e" d="M674.635,370.712c.4-.108.676-.033,1.014.552a8.351,8.351,0,0,0,2.548,2.9,9.123,9.123,0,0,0,2.321,1.07l1.446.423c.666.21.78.424.791.841s-.059.805-.863,1a4.88,4.88,0,0,1-1.819-.015,8.3,8.3,0,0,1-3.216-1.288,7.089,7.089,0,0,1-2.42-2.6,4.067,4.067,0,0,1-.542-1.8C673.892,370.956,674.24,370.823,674.635,370.712Z"/><path class="d" d="M669.387,396.115c-.293.305-.526.331-1.385-.072a12.659,12.659,0,0,0-5.64-1.3,12.525,12.525,0,0,0-3.632.544,16.159,16.159,0,0,0-1.933.755c-.868.412-1.074.361-1.388.075-.284-.274-.525-.66.238-1.51a6.277,6.277,0,0,1,2.124-1.4,11.649,11.649,0,0,1,4.666-.89,14.131,14.131,0,0,1,2.627.268,10.884,10.884,0,0,1,1.964.622,6.277,6.277,0,0,1,2.124,1.4C669.915,395.457,669.677,395.847,669.387,396.115Z"/></g></svg>