<svg xmlns="http://www.w3.org/2000/svg" width="62.252" height="62.252" viewBox="0 0 62.252 62.252"><defs><style>.a{fill:#ffd52b;}.b{fill:#6e351d;}</style></defs><g transform="translate(-816.641 -338.497)"><path class="a" d="M847.768,338.5a31.126,31.126,0,1,1-31.127,31.127A31.127,31.127,0,0,1,847.768,338.5Z"/><circle class="b" cx="4.789" cy="4.789" r="4.789" transform="translate(857.345 360.047)"/><circle class="b" cx="4.789" cy="4.789" r="4.789" transform="translate(828.613 360.047)"/><path class="b" d="M838.463,374.412c.433,0,.6.207.91.963a4.8,4.8,0,0,0,.934,1.451,3.708,3.708,0,0,0,2.733,1.161,3.863,3.863,0,0,0,1.556-.385,3.789,3.789,0,0,0,1.054-.776,4.822,4.822,0,0,0,.934-1.451,5.428,5.428,0,0,1,.405-.769.542.542,0,0,1,.506-.207.873.873,0,0,1,.57.191,1.045,1.045,0,0,1,.237.329,2.425,2.425,0,0,1,.108.712,4.312,4.312,0,0,1-.892,2.531,5.6,5.6,0,0,1-4.6,2.254,6.578,6.578,0,0,1-.716-.057,4.638,4.638,0,0,1-.8-.163,5.68,5.68,0,0,1-1.29-.539,5.512,5.512,0,0,1-1.676-1.494,4.289,4.289,0,0,1-.891-2.531,1.391,1.391,0,0,1,.344-1.046A.779.779,0,0,1,838.463,374.412Z"/><path class="b" d="M848.04,374.412c.435,0,.6.207.91.963a4.775,4.775,0,0,0,.935,1.451,3.7,3.7,0,0,0,2.732,1.161,3.863,3.863,0,0,0,1.556-.385,3.755,3.755,0,0,0,1.054-.776,4.792,4.792,0,0,0,.934-1.451,5.643,5.643,0,0,1,.4-.769.543.543,0,0,1,.506-.207.868.868,0,0,1,.57.191,1.029,1.029,0,0,1,.237.329,2.425,2.425,0,0,1,.108.712,4.312,4.312,0,0,1-.892,2.531,5.6,5.6,0,0,1-4.6,2.254,6.58,6.58,0,0,1-.716-.057,4.561,4.561,0,0,1-.795-.163,5.707,5.707,0,0,1-1.291-.539,5.537,5.537,0,0,1-1.676-1.494,4.288,4.288,0,0,1-.891-2.531,1.391,1.391,0,0,1,.344-1.046A.783.783,0,0,1,848.04,374.412Z"/></g></svg>