<svg xmlns="http://www.w3.org/2000/svg" width="62.252" height="62.252" viewBox="0 0 62.252 62.252"><defs><style>.a{fill:#ffd52b;}.b{fill:#6e351d;}</style></defs><g transform="translate(-917.107 -394.33)"><path class="a" d="M948.234,394.33a31.126,31.126,0,1,1-31.127,31.127A31.126,31.126,0,0,1,948.234,394.33Z"/><path class="b" d="M963.547,411.091a4.789,4.789,0,1,1-4.788,4.79h0a4.789,4.789,0,0,1,4.787-4.789Z"/><path class="b" d="M932.919,411a4.821,4.821,0,0,1,4.368,6.826,4.387,4.387,0,0,1-2.378,2.35,4.842,4.842,0,0,1-6.24-6.687A4.482,4.482,0,0,1,932.738,411Z"/><path class="b" d="M955.689,422.159c.206,0,.364.079.476.385a3.376,3.376,0,0,1,.019,1.734,7.341,7.341,0,0,1-1.751,3.484,8.119,8.119,0,0,1-2.407,1.874,7.826,7.826,0,0,1-1.732.655,7.187,7.187,0,0,1-1.039.2c-.385.058-.626.041-.959.068a8.244,8.244,0,0,1-6.262-2.795,7.34,7.34,0,0,1-1.751-3.484,4.906,4.906,0,0,1-.1-1.121,1.527,1.527,0,0,1,.115-.611.5.5,0,0,1,.476-.373.674.674,0,0,1,.591.213,1.616,1.616,0,0,1,.277.463,7.684,7.684,0,0,1,.344.713,8.843,8.843,0,0,0,1.554,2.47,6.933,6.933,0,0,0,1.818,1.393,6.586,6.586,0,0,0,2.809.7,6.4,6.4,0,0,0,4.752-2.1,8.8,8.8,0,0,0,1.554-2.47,4.682,4.682,0,0,1,.621-1.171A.737.737,0,0,1,955.689,422.159Z"/></g></svg>