<svg xmlns="http://www.w3.org/2000/svg" width="62.252" height="62.252" viewBox="0 0 62.252 62.252"><defs><style>.a{fill:#ffd52b;}.b{fill:#6e351d;}.c{fill:#45d4ff;}.d{fill:#e6a627;}</style></defs><g transform="translate(-787.191 -440.82)"><path class="a" d="M818.316,440.82a31.126,31.126,0,1,1-31.125,31.127A31.127,31.127,0,0,1,818.316,440.82Z"/><path class="b" d="M828,473.566v15.006c-2.495-.3-4.5-1.278-9.5-1.278-5.022,0-6.959.993-9.5,1.278V473.566A18.87,18.87,0,0,1,828,473.566Z"/><path class="b" d="M808.713,488.365c-.035-.42.182-.642,1.425-.994a31.813,31.813,0,0,1,16.362-.008c1.229.355,1.473.585,1.427,1-.057.4-.17.793-1.513.844-1.357.08-3.611-.475-8.1-.483s-6.736.575-8.1.49C808.887,489.161,808.752,488.764,808.713,488.365Z"/><path class="b" d="M827.769,475.65c-.2.376-.523.425-1.767.041-.627-.181-1.493-.468-2.736-.749a21.341,21.341,0,0,0-9.9,0c-1.243.281-2.107.569-2.734.749-1.216.369-1.6.346-1.772-.039-.159-.364-.312-.757.838-1.556a11.03,11.03,0,0,1,2.834-1.3,19.7,19.7,0,0,1,11.566,0,11.074,11.074,0,0,1,2.836,1.3C828.063,474.886,827.95,475.3,827.769,475.65Z"/><path class="c" d="M833,461.282a13.407,13.407,0,0,0-5,.851V501.46a32.446,32.446,0,0,0,10-5.319V462.133A13.418,13.418,0,0,0,833,461.282Z"/><path class="c" d="M809,474.151V462.138a15.122,15.122,0,0,0-10,0v34.008a32.435,32.435,0,0,0,10,5.319Z"/><path class="b" d="M810.913,463.731c-.332.273-.529.278-1.339-.129a13.651,13.651,0,0,0-11.25,0c-.811.408-1,.4-1.34.132-.317-.221-.619-.614.142-1.53.737-.854,2.805-2.237,6.824-2.246,4.02.009,6.088,1.393,6.825,2.246C811.535,463.12,811.237,463.517,810.913,463.731Z"/><path class="b" d="M825.281,463.4c-.309-.24-.354-.72.606-1.553.954-.8,3.072-1.886,6.8-1.893s5.847,1.1,6.8,1.893c.959.832.918,1.318.6,1.55-.346.254-.625.38-1.482.071a16.7,16.7,0,0,0-11.836,0C825.906,463.784,825.631,463.652,825.281,463.4Z"/><path class="d" d="M825.425,493.044c-.131.353-.338.49-1.295.446-.963-.021-2.653-.222-5.833-.243-3.1.02-4.848.219-5.794.243-.966.045-1.15-.1-1.3-.444s-.167-.7.763-1.116a24.807,24.807,0,0,1,12.7,0C825.595,492.342,825.57,492.715,825.425,493.044Z"/></g></svg>