<svg xmlns="http://www.w3.org/2000/svg" width="36.976" height="36.976" viewBox="0 0 36.976 36.976"><defs><style>.a{fill:#ffd52b;}.b{fill:#6e351d;}.c{fill:#fff;}.d{fill:#ed464e;}</style></defs><g transform="translate(-686 -550.756)"><path class="a" d="M699.005,551.544A18.513,18.513,0,1,1,686,569.244v0A18.318,18.318,0,0,1,699.005,551.544Z"/><circle class="b" cx="2.844" cy="2.844" r="2.844" transform="translate(709.856 560.711)"/><circle class="b" cx="2.844" cy="2.844" r="2.844" transform="translate(692.79 560.711)"/><path class="c" d="M695.294,570h17.743a1.51,1.51,0,0,1,1.5,1.521,1.413,1.413,0,0,1-.023.252,10.109,10.109,0,0,1-.287,1.227H694.1a10.3,10.3,0,0,1-.287-1.227A1.511,1.511,0,0,1,695.294,570Z"/><path class="b" d="M694.624,573h19.085a9.913,9.913,0,0,1-3.427,5.007,260.889,260.889,0,0,1-11.093-1.451,3.558,3.558,0,0,0-1.138,1.451A9.919,9.919,0,0,1,694.624,573Z"/><path class="d" d="M707.011,575.644a3.564,3.564,0,0,1,3.271,2.162,9.941,9.941,0,0,1-12.231,0,13.694,13.694,0,0,0,8.96-2.162Z"/></g></svg>