<svg xmlns="http://www.w3.org/2000/svg" width="46.534" height="46.534" viewBox="0 0 46.534 46.534"><defs><style>.a{fill:#ffd52b;}.b{fill:#6e351d;}</style></defs><g transform="translate(-809 -533.166)"><path class="a" d="M832.267,533.166A23.267,23.267,0,1,1,809,556.434,23.267,23.267,0,0,1,832.267,533.166Z"/><path class="b" d="M843.006,548.381a3.58,3.58,0,1,1-3.579,3.581h0a3.579,3.579,0,0,1,3.578-3.58Z"/><path class="b" d="M821.528,548.381a3.58,3.58,0,1,1-3.579,3.581h0a3.578,3.578,0,0,1,3.578-3.58Z"/><path class="b" d="M837.523,567.345c-.341.511-.975.2-5.76-2.994s-5.32-3.654-4.978-4.166.841-.776,5.986,2.654S837.864,566.833,837.523,567.345Z"/><path class="b" d="M837.75,560.185c.341.512-.194.976-4.979,4.166s-5.419,3.505-5.76,2.994-.393-1.076,4.752-4.506S837.406,559.674,837.75,560.185Z"/></g></svg>