<svg xmlns="http://www.w3.org/2000/svg" width="62.252" height="62.253" viewBox="0 0 62.252 62.253"><defs><style>.a{fill:#ffd52b;}.b{fill:#6e351d;}</style></defs><g transform="translate(-589.699 -637.727)"><path class="a" d="M620.824,637.727A31.126,31.126,0,1,1,589.7,668.854,31.125,31.125,0,0,1,620.824,637.727Z"/><path class="b" d="M635.191,654.488a4.789,4.789,0,1,1-4.788,4.79h0a4.788,4.788,0,0,1,4.787-4.789Z"/><path class="b" d="M606.46,654a4.821,4.821,0,0,1,4.368,6.826,4.388,4.388,0,0,1-2.378,2.35,4.842,4.842,0,0,1-6.241-6.685A4.483,4.483,0,0,1,606.28,654Z"/><path class="b" d="M636,669.127c0,.823-1.654.943-15.176.943s-15.173-.12-15.173-.943.634-1.489,15.173-1.489S636,668.3,636,669.127Z"/></g></svg>