<svg xmlns="http://www.w3.org/2000/svg" width="62.252" height="62.252" viewBox="0 0 62.252 62.252"><defs><style>.a{fill:#ffd52b;}.b{fill:#fff;}.c{fill:#6e351d;}.d{fill:#f6848f;opacity:0.268;}</style></defs><g transform="translate(3211.832 8574.542)"><g transform="translate(-3934.135 -9202.497)"><path class="a" d="M753.428,627.955A31.126,31.126,0,1,1,722.3,659.082,31.125,31.125,0,0,1,753.428,627.955Z"/><path class="b" d="M768.182,647.111a7.182,7.182,0,0,1,7.183,7.284,7.279,7.279,0,0,1-7.079,7.081A7.183,7.183,0,0,1,761,654.295v0A7.188,7.188,0,0,1,768.182,647.111Zm.811,7.182a1.2,1.2,0,1,0-1.2,1.2,1.2,1.2,0,0,0,1.2-1.2Z" transform="translate(0 -4)"/><path class="b" d="M739.182,647.111a7.182,7.182,0,0,1,7.183,7.284,7.279,7.279,0,0,1-7.079,7.081A7.183,7.183,0,0,1,732,654.295v0A7.189,7.189,0,0,1,739.182,647.111Zm1.08,6.889a1.2,1.2,0,1,0-1.2,1.2,1.2,1.2,0,0,0,1.2-1.2Z" transform="translate(0 -4)"/><path class="c" d="M760,665.342c0,.823-.716.942-6.568.942s-6.568-.119-6.568-.942.274-1.489,6.568-1.489S760,664.519,760,665.342Z" transform="translate(0 -8)"/><path class="c" d="M741.457,654.293a2.394,2.394,0,1,1-2.395-2.4A2.394,2.394,0,0,1,741.457,654.293Z" transform="translate(0 -4)"/><path class="c" d="M770.189,654.293a2.4,2.4,0,1,1-2.4-2.4A2.4,2.4,0,0,1,770.189,654.293Z" transform="translate(0 -4)"/></g><circle class="d" cx="5" cy="5" r="5" transform="translate(-3205 -8545)"/><circle class="d" cx="5" cy="5" r="5" transform="translate(-3166 -8545)"/></g></svg>