<svg xmlns="http://www.w3.org/2000/svg" width="62.252" height="62.252" viewBox="0 0 62.252 62.252"><defs><style>.a{fill:#ffd52b;}.b{fill:#6e351d;}</style></defs><g transform="translate(-917.107 -394.33)"><path class="a" d="M948.234,394.33a31.126,31.126,0,1,1-31.127,31.127A31.126,31.126,0,0,1,948.234,394.33Z"/><path class="b" d="M963.547,411.091a4.789,4.789,0,1,1-4.788,4.79h0a4.789,4.789,0,0,1,4.787-4.789Z"/><path class="b" d="M932.919,411a4.821,4.821,0,0,1,4.368,6.826,4.387,4.387,0,0,1-2.378,2.35,4.842,4.842,0,0,1-6.24-6.687A4.482,4.482,0,0,1,932.738,411Z"/></g></svg>