<svg xmlns="http://www.w3.org/2000/svg" width="62.252" height="62.264" viewBox="0 0 62.252 62.264"><defs><style>.a{fill:#ffd52b;}.b{fill:#6e351d;}.c{fill:#fff;opacity:0.27;}</style></defs><path class="a" d="M379.933,394.014a31.126,31.126,0,1,1-31.127,31.127A31.129,31.129,0,0,1,379.933,394.014Z" transform="translate(-348.806 -394.014)"/><path class="b" d="M384.021,406.543a4.789,4.789,0,1,1-4.788,4.789A4.788,4.788,0,0,1,384.021,406.543Z" transform="translate(-337.581 -389.782)"/><path class="b" d="M362.544,406.543a4.789,4.789,0,1,1-4.789,4.789A4.787,4.787,0,0,1,362.544,406.543Z" transform="translate(-346.732 -389.782)"/><g transform="translate(23.078 27.829)"><path class="b" d="M381.561,419.072c.206,0,.364.079.476.385a3.376,3.376,0,0,1,.019,1.734,7.348,7.348,0,0,1-1.751,3.484,8.123,8.123,0,0,1-2.407,1.874,7.811,7.811,0,0,1-1.732.655,7.233,7.233,0,0,1-1.039.2c-.385.058-.626.041-.959.068a8.244,8.244,0,0,1-6.262-2.795,7.348,7.348,0,0,1-1.751-3.484,4.881,4.881,0,0,1-.1-1.121,1.53,1.53,0,0,1,.115-.611.5.5,0,0,1,.476-.373.672.672,0,0,1,.591.213,1.617,1.617,0,0,1,.277.463,7.754,7.754,0,0,1,.344.713,8.828,8.828,0,0,0,1.554,2.47,6.929,6.929,0,0,0,1.818,1.393,6.587,6.587,0,0,0,2.809.705,6.407,6.407,0,0,0,4.752-2.1,8.828,8.828,0,0,0,1.554-2.47,4.677,4.677,0,0,1,.621-1.171A.735.735,0,0,1,381.561,419.072Z" transform="translate(-366.057 -419.072)"/></g><path class="c" d="M370.375,442.253a43.781,43.781,0,0,1-12.768-1.894,31.248,31.248,0,0,0,19.352,6.7c15.483.42,27.743-11.116,30.534-25.776C399.885,434.057,386.348,442.687,370.375,442.253Z" transform="translate(-345.833 -384.804)"/></svg>