<svg id="Calque_1" data-name="Calque 1" xmlns="http://www.w3.org/2000/svg" xmlns:xlink="http://www.w3.org/1999/xlink" viewBox="0 0 134 136"><defs><style>.cls-1{fill:url(#Dégradé_sans_nom_62);}.cls-2{fill:url(#Dégradé_sans_nom_62-2);}</style><linearGradient id="Dégradé_sans_nom_62" x1="18.21" y1="108.03" x2="57.79" y2="-0.7" gradientUnits="userSpaceOnUse"><stop offset="0" stop-color="#c600ff"/><stop offset="0.13" stop-color="#b207fb"/><stop offset="0.37" stop-color="#9012f3"/><stop offset="0.6" stop-color="#781aee"/><stop offset="0.82" stop-color="#6a1eeb"/><stop offset="1" stop-color="#6520ea"/></linearGradient><linearGradient id="Dégradé_sans_nom_62-2" x1="77.04" y1="135.68" x2="116.59" y2="27.02" xlink:href="#Dégradé_sans_nom_62"/></defs><title>nearbud</title><path class="cls-1" d="M26.26,109.8,56.5,79.88A3,3,0,0,0,56,75.14l-10.66-6.5a13.47,13.47,0,0,1-2.11-21.75L83.68,11a1.47,1.47,0,0,0-.6-2.52A61,61,0,0,0,23.52,109.75,1.93,1.93,0,0,0,26.26,109.8Z"/><path class="cls-2" d="M108.31,25.38,76.91,53.09a2.11,2.11,0,0,0,.3,3.39L88,63.08a12.63,12.63,0,0,1,3.75,3.38,13.59,13.59,0,0,1-1.31,17.65l-39.7,39.7a1.53,1.53,0,0,0,.67,2.55,62.22,62.22,0,0,0,32.3,0A59.79,59.79,0,0,0,126.6,82.93a61.15,61.15,0,0,0-14.85-57.39A2.47,2.47,0,0,0,108.31,25.38Z"/></svg>