<svg xmlns="http://www.w3.org/2000/svg" width="373.975" height="320.516" viewBox="0 0 373.975 320.516"><defs><style>.a,.c{fill:#6900ff;}.a,.g{opacity:0.1;}.b{fill:none;stroke:#535461;stroke-miterlimit:10;stroke-width:2px;}.d{opacity:0.25;}.e{fill:#e6e8ec;}.f{fill:#dcdfed;}.h{fill:#e3e5f1;}</style></defs><g transform="translate(-21.102 -208.715)"><ellipse class="a" cx="149.608" cy="15.087" rx="149.608" ry="15.087" transform="translate(84.7 499.057)"/><path class="b" d="M199.684,734.853s-6.638-37.609-31.275-56.246a57.629,57.629,0,0,1-21.2-30.57,92.235,92.235,0,0,1-2.974-17.546" transform="translate(-102.238 -222.345)"/><path class="c" d="M113.393,596.488c2.058,4.029,15.812,12.185,15.812,12.185s1.729-15.236-.345-19.27a8.827,8.827,0,0,0-11.485-3.761A7.912,7.912,0,0,0,113.393,596.488Z" transform="translate(-86.848 -200.178)"/><path class="c" d="M107.763,648.075c4.065,2.321,20.294,2.115,20.294,2.115s-7.322-13.677-11.372-16a8.893,8.893,0,0,0-11.8,2.737A7.856,7.856,0,0,0,107.763,648.075Z" transform="translate(-82.53 -223.572)"/><path class="c" d="M142.863,720.683c4.744.067,18.642-7.847,18.642-7.847s-13.631-8.315-18.38-8.387a8.412,8.412,0,0,0-8.747,7.991C134.286,716.922,138.114,720.6,142.863,720.683Z" transform="translate(-97.455 -258.247)"/><path class="c" d="M187.219,770.247c4.662.828,19.78-4.76,19.78-4.76s-11.948-10.384-16.6-11.2a8.58,8.58,0,0,0-10.034,6.483A8.143,8.143,0,0,0,187.219,770.247Z" transform="translate(-119.704 -282.376)"/><path class="c" d="M167.768,643.178c-1.621,4.214-14.408,13.661-14.408,13.661s-3.386-14.984-1.765-19.2a8.751,8.751,0,0,1,11.017-4.863A8.007,8.007,0,0,1,167.768,643.178Z" transform="translate(-105.6 -223.219)"/><path class="c" d="M215.861,699.575c-2.882,3.566-18.071,8.969-18.071,8.969s1.544-15.257,4.4-18.817a8.943,8.943,0,0,1,12.051-1.544,7.821,7.821,0,0,1,1.616,11.392Z" transform="translate(-128.238 -249.545)"/><path class="c" d="M257.12,763.71c-2.2,3.972-16.2,11.722-16.2,11.722s-1.23-15.277.973-19.25a8.851,8.851,0,0,1,11.6-3.427A7.9,7.9,0,0,1,257.12,763.71Z" transform="translate(-149.008 -281.247)"/><path class="d" d="M113.393,596.488c2.058,4.029,15.812,12.185,15.812,12.185s1.729-15.236-.345-19.27a8.827,8.827,0,0,0-11.485-3.761A7.912,7.912,0,0,0,113.393,596.488Z" transform="translate(-86.848 -200.178)"/><path class="d" d="M107.763,648.075c4.065,2.321,20.294,2.115,20.294,2.115s-7.322-13.677-11.372-16a8.893,8.893,0,0,0-11.8,2.737A7.856,7.856,0,0,0,107.763,648.075Z" transform="translate(-82.53 -223.572)"/><path class="d" d="M142.863,720.683c4.744.067,18.642-7.847,18.642-7.847s-13.631-8.315-18.38-8.387a8.412,8.412,0,0,0-8.747,7.991C134.286,716.922,138.114,720.6,142.863,720.683Z" transform="translate(-97.455 -258.247)"/><path class="d" d="M187.219,770.247c4.662.828,19.78-4.76,19.78-4.76s-11.948-10.384-16.6-11.2a8.58,8.58,0,0,0-10.034,6.483A8.143,8.143,0,0,0,187.219,770.247Z" transform="translate(-119.704 -282.376)"/><path class="d" d="M167.768,643.178c-1.621,4.214-14.408,13.661-14.408,13.661s-3.386-14.984-1.765-19.2a8.751,8.751,0,0,1,11.017-4.863A8.007,8.007,0,0,1,167.768,643.178Z" transform="translate(-105.6 -223.219)"/><path class="d" d="M215.861,699.575c-2.882,3.566-18.071,8.969-18.071,8.969s1.544-15.257,4.4-18.817a8.943,8.943,0,0,1,12.051-1.544,7.821,7.821,0,0,1,1.616,11.392Z" transform="translate(-128.238 -249.545)"/><path class="d" d="M257.12,763.71c-2.2,3.972-16.2,11.722-16.2,11.722s-1.23-15.277.973-19.25a8.851,8.851,0,0,1,11.6-3.427A7.9,7.9,0,0,1,257.12,763.71Z" transform="translate(-149.008 -281.247)"/><path class="b" d="M239.519,721.36s10.07-36.925-4.451-63.394a54.957,54.957,0,0,1-6.262-36.06,92.62,92.62,0,0,1,4.811-17.176" transform="translate(-142.907 -209.84)"/><path class="c" d="M221.325,564.3c.165,4.477,9.226,17.191,9.226,17.191s8.12-13.27,7.955-17.752a8.609,8.609,0,0,0-17.181.561Z" transform="translate(-139.66 -186.136)"/><path class="c" d="M194.039,609.3c2.717,3.674,17.639,9.694,17.639,9.694s-.823-15.3-3.54-18.982A8.928,8.928,0,0,0,196.169,598a7.837,7.837,0,0,0-2.13,11.3Z" transform="translate(-125.67 -205.861)"/><path class="c" d="M194.98,689.1c4.312,1.878,20.418-.036,20.418-.036s-8.9-12.823-13.209-14.7a8.816,8.816,0,0,0-11.408,3.967A7.932,7.932,0,0,0,194.98,689.1Z" transform="translate(-124.45 -243.279)"/><path class="c" d="M214.222,751.379c3.916,2.542,20.13,3.216,20.13,3.216s-6.473-14.053-10.384-16.589a8.917,8.917,0,0,0-11.953,2.058,7.837,7.837,0,0,0,2.207,11.315Z" transform="translate(-134.404 -273.836)"/><path class="c" d="M246.939,627.767C243.645,631,227.9,634.75,227.9,634.75s3.339-15,6.628-18.231a8.964,8.964,0,0,1,12.159-.226,7.8,7.8,0,0,1,.252,11.475Z" transform="translate(-142.855 -214.353)"/><path class="c" d="M265.786,698.714C261.623,700.87,245.42,700,245.42,700s7.94-13.379,12.1-15.519a8.878,8.878,0,0,1,11.67,3.216A7.872,7.872,0,0,1,265.786,698.714Z" transform="translate(-151.36 -248.072)"/><path class="c" d="M275.667,772.283c-3.72,2.789-19.847,4.518-19.847,4.518s5.434-14.444,9.154-17.233a8.943,8.943,0,0,1,12.077,1.312,7.816,7.816,0,0,1-1.384,11.4Z" transform="translate(-156.408 -284.15)"/><circle class="e" cx="0.185" cy="0.185" r="0.185" transform="translate(364.744 274.061)"/><path class="f" d="M455.132,245.835l-134.562,87.3,87.815,158.381A6.128,6.128,0,0,0,412.3,494.5l79.566,19.409a6.133,6.133,0,0,0,6.967-3.3L538.3,428.617,581.549,370.8,478.9,249.36A18.19,18.19,0,0,0,455.132,245.835Z" transform="translate(-187.841 -34.2)"/><path class="g" d="M584.2,372.118l-.381.515-25.337,33.873-.458.612L540.95,429.95,507.2,500.089l-.947,1.96-4.765,9.895a6.134,6.134,0,0,1-6.977,3.3L414.94,495.823a6.118,6.118,0,0,1-3.911-2.984l-7.651-13.775L402,476.584l-55.228-99.649-.473-.849L323.22,334.458l2.789-1.811,21.143-13.713.489-.319,44.525-28.887,2.809-1.822,62.8-40.748a18.184,18.184,0,0,1,23.783,3.52L528.385,306.1l2.058,2.47,33.987,40.208.185.221L581.7,369.206l2.151,2.547Z" transform="translate(-189.127 -34.838)"/><path class="g" d="M583.011,388.868l-4.147,28.815-1.25,8.7L576.9,444.9l-.057,1.446-3.72,96.789a6.139,6.139,0,0,1-7.466,5.748l-40.1-8.953-.432-.1L422.263,516.88l-1.888-.422L363.83,503.831l1.3-87.022.041-2.907.391-26.34.432-29.073L410.516,329.6l2.81-1.822c41.3,4.235,96.222,12.38,133.43,18.19l2.058,2.47,33.961,40.208Z" transform="translate(-208.841 -75.397)"/><path class="c" d="M587.224,353.974l-4.883,33.961-4.477,31.1-1.25,8.675-.715,18.524-3.777,98.234a6.139,6.139,0,0,1-7.466,5.748l-40.537-9.051L421.263,518.211,362.83,505.161l1.338-89.929.391-26.34.458-30.812.468-31.692c9.663-.458,25.563.576,44.545,2.485,42.5,4.266,100.442,12.895,138.324,18.838C571.55,351.35,587.224,353.974,587.224,353.974Z" transform="translate(-208.355 -74.669)"/><path class="g" d="M579.1,451.289l-21.75,10.667L446.348,516.4l-102.3-84.547-20.68-17.119-2.789,1.811,23.083,41.628L342.325,548.1l58.433,13.049,7.636,13.775a6.118,6.118,0,0,0,3.911,2.984l79.566,19.409a6.134,6.134,0,0,0,6.962-3.3l4.765-9.895,40.537,9.051a6.139,6.139,0,0,0,7.466-5.748l3.777-98.234,25.795-34.475.072-.87Z" transform="translate(-187.846 -117.606)"/><path class="f" d="M311.9,418.25,302.73,575.36a6.134,6.134,0,0,0,4.791,6.344l243.654,54.106a6.134,6.134,0,0,0,7.425-5.49l14.279-174.41-135.2,66.311Z" transform="translate(-179.175 -119.315)"/><path class="g" d="M305.522,655.623,432.1,577.529a9.293,9.293,0,0,1,11.835,1.852l113.3,132.133c.412.473.612.134,0,0L305.522,655.623C304.8,655.464,304.895,656,305.522,655.623Z" transform="translate(-180.29 -195.981)"/><path class="h" d="M307.14,657.591l125.274-75.676a9.823,9.823,0,0,1,12.494,1.966L557.18,713a1.353,1.353,0,0,1-1.312,2.208l-248.321-55.14a1.348,1.348,0,0,1-.406-2.475Z" transform="translate(-181.003 -198.078)"/></g></svg>